<svg width="35" height="35" viewBox="0 0 35 35" fill="none" xmlns="http://www.w3.org/2000/svg">
<path d="M14.5833 24.0625L23.3333 17.5L14.5833 10.9375V24.0625ZM17.5 2.91667C9.44999 2.91667 2.91666 9.45 2.91666 17.5C2.91666 25.55 9.44999 32.0833 17.5 32.0833C25.55 32.0833 32.0833 25.55 32.0833 17.5C32.0833 9.45 25.55 2.91667 17.5 2.91667ZM17.5 29.1667C11.0687 29.1667 5.83332 23.9313 5.83332 17.5C5.83332 11.0688 11.0687 5.83333 17.5 5.83333C23.9312 5.83333 29.1667 11.0688 29.1667 17.5C29.1667 23.9313 23.9312 29.1667 17.5 29.1667Z" fill="black"/>
</svg>
