<svg width="35" height="35" viewBox="0 0 35 35" fill="none" xmlns="http://www.w3.org/2000/svg">
<path d="M27.9125 18.865C27.965 18.4275 28 17.9725 28 17.5C28 17.0275 27.965 16.5725 27.895 16.135L30.8525 13.825C31.115 13.615 31.185 13.23 31.0275 12.9325L28.2275 8.085C28.0525 7.77 27.685 7.665 27.37 7.77L23.8875 9.17C23.1525 8.61 22.3825 8.155 21.525 7.805L21 4.095C20.9475 3.745 20.65 3.5 20.3 3.5H14.7C14.35 3.5 14.07 3.745 14.0175 4.095L13.4925 7.805C12.635 8.155 11.8475 8.6275 11.13 9.17L7.64751 7.77C7.33251 7.6475 6.96501 7.77 6.79001 8.085L3.99001 12.9325C3.81501 13.2475 3.88501 13.615 4.16501 13.825L7.12251 16.135C7.05251 16.5725 7.00001 17.045 7.00001 17.5C7.00001 17.955 7.03501 18.4275 7.10501 18.865L4.14751 21.175C3.88501 21.385 3.81501 21.77 3.97251 22.0675L6.77251 26.915C6.94751 27.23 7.31501 27.335 7.63001 27.23L11.1125 25.83C11.8475 26.39 12.6175 26.845 13.475 27.195L14 30.905C14.07 31.255 14.35 31.5 14.7 31.5H20.3C20.65 31.5 20.9475 31.255 20.9825 30.905L21.5075 27.195C22.365 26.845 23.1525 26.3725 23.87 25.83L27.3525 27.23C27.6675 27.3525 28.035 27.23 28.21 26.915L31.01 22.0675C31.185 21.7525 31.115 21.385 30.835 21.175L27.9125 18.865ZM17.5 22.75C14.6125 22.75 12.25 20.3875 12.25 17.5C12.25 14.6125 14.6125 12.25 17.5 12.25C20.3875 12.25 22.75 14.6125 22.75 17.5C22.75 20.3875 20.3875 22.75 17.5 22.75Z" fill="#442D20"/>
</svg>
