<svg width="31" height="31" viewBox="0 0 31 31" fill="none" xmlns="http://www.w3.org/2000/svg">
<path d="M29.7085 15.9827L16.5835 1.39937C16.0308 0.783951 14.9692 0.783951 14.4165 1.39937L1.29146 15.9827C1.10254 16.1921 0.978533 16.4519 0.93452 16.7305C0.890506 17.0091 0.928381 17.2944 1.04354 17.5519C1.27687 18.0783 1.79896 18.4167 2.375 18.4167H5.29166V28.625C5.29166 29.0118 5.44531 29.3827 5.7188 29.6562C5.99229 29.9297 6.36322 30.0833 6.75 30.0833H11.125C11.5118 30.0833 11.8827 29.9297 12.1562 29.6562C12.4297 29.3827 12.5833 29.0118 12.5833 28.625V22.7917H18.4167V28.625C18.4167 29.0118 18.5703 29.3827 18.8438 29.6562C19.1173 29.9297 19.4882 30.0833 19.875 30.0833H24.25C24.6368 30.0833 25.0077 29.9297 25.2812 29.6562C25.5547 29.3827 25.7083 29.0118 25.7083 28.625V18.4167H28.625C28.9074 18.4179 29.1841 18.3369 29.4213 18.1835C29.6585 18.0302 29.8459 17.8112 29.9608 17.5532C30.0757 17.2952 30.113 17.0093 30.0682 16.7304C30.0234 16.4516 29.8984 16.1918 29.7085 15.9827Z" fill="#241811"/>
</svg>
